# Cilindro simples
mtllib cylinder.mtl

# Topo do cilindro (círculo)
v 1.0 1.0 0.0
v 0.809 1.0 0.588
v 0.309 1.0 0.951
v -0.309 1.0 0.951
v -0.809 1.0 0.588
v -1.0 1.0 0.0
v -0.809 1.0 -0.588
v -0.309 1.0 -0.951
v 0.309 1.0 -0.951
v 0.809 1.0 -0.588

# Fundo do cilindro (círculo)
v 1.0 -1.0 0.0
v 0.809 -1.0 0.588
v 0.309 -1.0 0.951
v -0.309 -1.0 0.951
v -0.809 -1.0 0.588
v -1.0 -1.0 0.0
v -0.809 -1.0 -0.588
v -0.309 -1.0 -0.951
v 0.309 -1.0 -0.951
v 0.809 -1.0 -0.588

usemtl cylinder_top

# Face do topo
f 1 2 3
f 1 3 4
f 1 4 5
f 1 5 6
f 1 6 7
f 1 7 8
f 1 8 9
f 1 9 10

usemtl cylinder_bottom

# Face do fundo (invertida)
f 11 13 12
f 11 14 13
f 11 15 14
f 11 16 15
f 11 17 16
f 11 18 17
f 11 19 18
f 11 20 19

usemtl cylinder_side

# Lados do cilindro
f 1 11 12
f 1 12 2
f 2 12 13
f 2 13 3
f 3 13 14
f 3 14 4
f 4 14 15
f 4 15 5
f 5 15 16
f 5 16 6
f 6 16 17
f 6 17 7
f 7 17 18
f 7 18 8
f 8 18 19
f 8 19 9
f 9 19 20
f 9 20 10
f 10 20 11
f 10 11 1
